<svg xmlns="http://www.w3.org/2000/svg" version="1.1" xmlns:xlink="http://www.w3.org/1999/xlink" width="200" height="200"><svg xmlns="http://www.w3.org/2000/svg" version="1.1" xmlns:xlink="http://www.w3.org/1999/xlink" viewBox="0 0 200 200"><rect width="200" height="200" fill="url('#gradient')"></rect><defs><linearGradient id="SvgjsLinearGradient1001" gradientTransform="rotate(216 0.5 0.5)"><stop offset="0%" stop-color="#ffffff"></stop><stop offset="100%" stop-color="#ededed"></stop></linearGradient></defs><g><g fill="#046308" transform="matrix(1.9627070515854235,0,0,1.9627070515854235,16.895232944684857,114.52637556448853)" stroke="046308" stroke-width="0"><path d="M1.07-14.22L5.58-14.22L8.75-4.33L11.91-14.22L16.43-14.22L16.43 0L12.99 0L12.99-3.32L13.32-10.12L9.88 0L7.62 0L4.17-10.13L4.50-3.32L4.50 0L1.07 0L1.07-14.22ZM23.56 0.20L23.56 0.20Q21.13 0.20 19.63-1.25Q18.13-2.71 18.13-5.03L18.13-5.03L18.13-5.30Q18.13-6.92 18.73-8.16Q19.33-9.40 20.48-10.08Q21.63-10.76 23.21-10.76L23.21-10.76Q25.44-10.76 26.73-9.38Q28.02-8.00 28.02-5.53L28.02-5.53L28.02-4.25L21.47-4.25Q21.65-3.36 22.25-2.85Q22.84-2.34 23.79-2.34L23.79-2.34Q25.35-2.34 26.23-3.44L26.23-3.44L27.73-1.66Q27.12-0.81 25.99-0.31Q24.86 0.20 23.56 0.20ZM23.19-8.22L23.19-8.22Q21.75-8.22 21.47-6.31L21.47-6.31L24.79-6.31L24.79-6.56Q24.81-7.35 24.39-7.79Q23.97-8.22 23.19-8.22ZM28.93-5.36L28.93-5.36Q28.93-7.87 30.01-9.32Q31.09-10.76 33.04-10.76L33.04-10.76Q34.45-10.76 35.42-9.65L35.42-9.65L35.42-15L38.72-15L38.72 0L35.76 0L35.60-1.13Q34.58 0.20 33.02 0.20L33.02 0.20Q31.13 0.20 30.03-1.25Q28.93-2.70 28.93-5.36ZM32.23-5.76L32.22-5.16Q32.22-2.34 33.86-2.34L33.86-2.34Q34.95-2.34 35.42-3.26L35.42-3.26L35.42-7.29Q34.97-8.22 33.88-8.22L33.88-8.22Q32.35-8.22 32.23-5.76L32.23-5.76ZM44.06-10.57L44.06 0L40.76 0L40.76-10.57L44.06-10.57ZM40.57-13.29L40.57-13.29Q40.57-13.99 41.07-14.44Q41.58-14.89 42.39-14.89Q43.20-14.89 43.71-14.44Q44.22-13.99 44.22-13.29Q44.22-12.59 43.71-12.14Q43.20-11.69 42.39-11.69Q41.58-11.69 41.07-12.14Q40.57-12.59 40.57-13.29ZM54.34-4.81L57.74-4.81Q57.68-3.33 56.94-2.19Q56.21-1.05 54.89-0.43Q53.56 0.20 51.87 0.20L51.87 0.20Q49.06 0.20 47.45-1.63Q45.84-3.46 45.84-6.79L45.84-6.79L45.84-7.49Q45.84-9.58 46.57-11.15Q47.29-12.71 48.66-13.57Q50.03-14.42 51.83-14.42L51.83-14.42Q54.41-14.42 55.99-13.06Q57.56-11.70 57.77-9.31L57.77-9.31L54.36-9.31Q54.32-10.61 53.70-11.17Q53.09-11.74 51.83-11.74L51.83-11.74Q50.55-11.74 49.95-10.78Q49.36-9.82 49.33-7.72L49.33-7.72L49.33-6.72Q49.33-4.44 49.90-3.47Q50.47-2.49 51.87-2.49L51.87-2.49Q53.05-2.49 53.67-3.05Q54.30-3.60 54.34-4.81L54.34-4.81ZM68.46 0L65.17 0Q64.99-0.32 64.85-0.95L64.85-0.95Q63.95 0.20 62.31 0.20L62.31 0.20Q60.82 0.20 59.78-0.71Q58.73-1.61 58.73-2.98L58.73-2.98Q58.73-4.70 60-5.58Q61.27-6.46 63.69-6.46L63.69-6.46L64.71-6.46L64.71-7.01Q64.71-8.47 63.45-8.47L63.45-8.47Q62.28-8.47 62.28-7.31L62.28-7.31L58.98-7.31Q58.98-8.85 60.29-9.80Q61.59-10.76 63.61-10.76Q65.63-10.76 66.81-9.78Q67.98-8.79 68.01-7.07L68.01-7.07L68.01-2.39Q68.03-0.94 68.46-0.17L68.46-0.17L68.46 0ZM63.11-2.15L63.11-2.15Q63.72-2.15 64.13-2.41Q64.53-2.68 64.71-3.01L64.71-3.01L64.71-4.70L63.75-4.70Q62.03-4.70 62.03-3.15L62.03-3.15Q62.03-2.71 62.33-2.43Q62.64-2.15 63.11-2.15ZM76.28-10.64L76.22-7.59L75.14-7.67Q73.58-7.67 73.14-6.69L73.14-6.69L73.14 0L69.85 0L69.85-10.57L72.94-10.57L73.05-9.21Q73.88-10.76 75.36-10.76L75.36-10.76Q75.89-10.76 76.28-10.64L76.28-10.64ZM78.44-13.19L81.73-13.19L81.73-10.57L83.47-10.57L83.47-8.28L81.73-8.28L81.73-3.45Q81.73-2.85 81.94-2.62Q82.16-2.38 82.79-2.38L82.79-2.38Q83.28-2.38 83.61-2.44L83.61-2.44L83.61-0.09Q82.72 0.20 81.76 0.20L81.76 0.20Q80.06 0.20 79.25-0.61Q78.44-1.41 78.44-3.04L78.44-3.04L78.44-8.28L77.09-8.28L77.09-10.57L78.44-10.57L78.44-13.19Z"></path></g></g></svg><style>@media (prefers-color-scheme: light) { :root { filter: none; } }
@media (prefers-color-scheme: dark) { :root { filter: none; } }
</style></svg>